<svg width="60" height="70" viewBox="0 0 60 70" fill="none" xmlns="http://www.w3.org/2000/svg">
<g id="bS">
<path d="M17.3618 17.158C25.2265 17.158 31.6073 25.0713 31.6073 34.8336C31.6073 44.6698 25.2265 51.7697 14.9875 51.7697C8.01313 51.7697 9.27445 50.4385 5.19369 50.4385C2.81943 50.4385 1.78069 51.7697 0 51.7697V4.28949C3.56139 3.54992 6.7518 2.07079 9.27445 0V20.2641C11.5745 18.2673 14.394 17.158 17.3618 17.158ZM14.394 50.8082C20.1812 50.8822 22.2587 43.8563 22.2587 34.8336C22.2587 25.8109 20.1812 18.5631 15.0617 18.5631C12.4649 18.5631 9.27445 20.1162 9.27445 23.2964V42.4511C9.27445 46.6667 9.94222 50.8082 14.394 50.8082Z" fill="#EEE9DB"/>
<path d="M43.4544 70C30.7669 70 26.4636 64.6751 26.0184 64.0835C22.086 59.8679 24.3119 54.2472 24.6087 53.6556H25.2023C25.2023 63.9356 34.4767 69.1125 42.7866 69.1125C47.09 69.1125 51.1707 67.7073 51.1707 62.7522C51.1707 56.6138 45.1609 52.99 38.78 49.1442C31.8057 44.8547 24.3861 40.3434 24.3861 31.5425C24.3861 22.224 32.7702 17.2689 41.3027 17.2689C46.348 17.2689 50.5772 19.3397 55.6967 19.3397C57.1064 19.3397 58.5161 18.6741 59.5548 17.6387C60 21.2625 58.8871 24.3687 54.7321 24.3687C48.0545 24.3687 49.3158 18.0085 40.8575 18.0085C36.3316 18.0085 32.5476 20.8928 32.5476 25.8479C32.5476 32.2081 38.6317 35.4622 44.9383 38.8642C52.2837 42.8579 60 47.1474 60 56.392C60 66.0063 51.7643 70 43.4544 70Z" fill="#EEE9DB"/>
</g>
</svg>
